<mxfile host="Electron" modified="2024-05-08T07:29:42.482Z" agent="Mozilla/5.0 (Windows NT 10.0; Win64; x64) AppleWebKit/537.36 (KHTML, like Gecko) draw.io/24.1.0 Chrome/120.0.6099.109 Electron/28.1.0 Safari/537.36" etag="XD5rOghrsidg3qErAccv" version="24.1.0" type="device">
  <diagram name="第 1 页" id="APfV8ooJw2_cbSdh15V-">
    <mxGraphModel dx="1098" dy="511" grid="1" gridSize="10" guides="1" tooltips="1" connect="1" arrows="1" fold="1" page="1" pageScale="1" pageWidth="827" pageHeight="1169" math="0" shadow="0">
      <root>
        <mxCell id="0" />
        <mxCell id="1" parent="0" />
        <mxCell id="X8yF9a7k6hh9vaFm_Xc7-1" value="&lt;font style=&quot;font-size: 14px;&quot;&gt;&lt;b&gt;Client&lt;/b&gt;&lt;/font&gt;" style="image;points=[];aspect=fixed;html=1;align=center;shadow=0;dashed=0;image=img/lib/allied_telesis/computer_and_terminals/Personal_Computer.svg;" vertex="1" parent="1">
          <mxGeometry x="130" y="122.80000000000001" width="45.6" height="61.800000000000004" as="geometry" />
        </mxCell>
        <mxCell id="X8yF9a7k6hh9vaFm_Xc7-2" value="&lt;font style=&quot;font-size: 14px;&quot;&gt;&lt;b&gt;QUIC Server&lt;/b&gt;&lt;/font&gt;" style="image;points=[];aspect=fixed;html=1;align=center;shadow=0;dashed=0;image=img/lib/allied_telesis/storage/Datacenter_Server_Half_Rack_ToR.svg;" vertex="1" parent="1">
          <mxGeometry x="330" y="110" width="65.11" height="84.6" as="geometry" />
        </mxCell>
        <mxCell id="X8yF9a7k6hh9vaFm_Xc7-4" value="" style="endArrow=none;html=1;rounded=0;" edge="1" parent="1" source="X8yF9a7k6hh9vaFm_Xc7-11">
          <mxGeometry width="50" height="50" relative="1" as="geometry">
            <mxPoint x="150" y="220" as="sourcePoint" />
            <mxPoint x="150" y="480" as="targetPoint" />
          </mxGeometry>
        </mxCell>
        <mxCell id="X8yF9a7k6hh9vaFm_Xc7-5" value="" style="endArrow=none;html=1;rounded=0;" edge="1" parent="1">
          <mxGeometry width="50" height="50" relative="1" as="geometry">
            <mxPoint x="368.6" y="220" as="sourcePoint" />
            <mxPoint x="368.6" y="480" as="targetPoint" />
          </mxGeometry>
        </mxCell>
        <mxCell id="X8yF9a7k6hh9vaFm_Xc7-6" value="" style="shape=flexArrow;endArrow=classic;startArrow=classic;html=1;rounded=0;" edge="1" parent="1">
          <mxGeometry width="100" height="100" relative="1" as="geometry">
            <mxPoint x="170" y="260" as="sourcePoint" />
            <mxPoint x="360" y="260" as="targetPoint" />
          </mxGeometry>
        </mxCell>
        <mxCell id="X8yF9a7k6hh9vaFm_Xc7-7" value="&lt;font style=&quot;font-size: 14px;&quot;&gt;&lt;b&gt;QUIC Handshake&lt;/b&gt;&lt;/font&gt;" style="edgeLabel;html=1;align=center;verticalAlign=middle;resizable=0;points=[];" vertex="1" connectable="0" parent="X8yF9a7k6hh9vaFm_Xc7-6">
          <mxGeometry x="-0.0526" y="3" relative="1" as="geometry">
            <mxPoint as="offset" />
          </mxGeometry>
        </mxCell>
        <mxCell id="X8yF9a7k6hh9vaFm_Xc7-9" value="" style="endArrow=none;html=1;rounded=0;" edge="1" parent="1" target="X8yF9a7k6hh9vaFm_Xc7-8">
          <mxGeometry width="50" height="50" relative="1" as="geometry">
            <mxPoint x="150" y="220" as="sourcePoint" />
            <mxPoint x="150" y="480" as="targetPoint" />
          </mxGeometry>
        </mxCell>
        <mxCell id="X8yF9a7k6hh9vaFm_Xc7-8" value="&lt;font style=&quot;font-size: 14px;&quot;&gt;&lt;b&gt;IP A&lt;/b&gt;&lt;/font&gt;" style="ellipse;whiteSpace=wrap;html=1;" vertex="1" parent="1">
          <mxGeometry x="130" y="240" width="40" height="40" as="geometry" />
        </mxCell>
        <mxCell id="X8yF9a7k6hh9vaFm_Xc7-12" value="" style="endArrow=none;html=1;rounded=0;" edge="1" parent="1" source="X8yF9a7k6hh9vaFm_Xc7-8" target="X8yF9a7k6hh9vaFm_Xc7-11">
          <mxGeometry width="50" height="50" relative="1" as="geometry">
            <mxPoint x="150" y="280" as="sourcePoint" />
            <mxPoint x="150" y="480" as="targetPoint" />
          </mxGeometry>
        </mxCell>
        <mxCell id="X8yF9a7k6hh9vaFm_Xc7-11" value="&lt;font style=&quot;font-size: 14px;&quot;&gt;&lt;b&gt;IP B&lt;/b&gt;&lt;/font&gt;" style="ellipse;whiteSpace=wrap;html=1;" vertex="1" parent="1">
          <mxGeometry x="130" y="320" width="40" height="40" as="geometry" />
        </mxCell>
        <mxCell id="X8yF9a7k6hh9vaFm_Xc7-13" value="" style="endArrow=classic;html=1;rounded=0;exitX=1;exitY=0.5;exitDx=0;exitDy=0;" edge="1" parent="1" source="X8yF9a7k6hh9vaFm_Xc7-11">
          <mxGeometry width="50" height="50" relative="1" as="geometry">
            <mxPoint x="260" y="370" as="sourcePoint" />
            <mxPoint x="360" y="340" as="targetPoint" />
          </mxGeometry>
        </mxCell>
        <mxCell id="X8yF9a7k6hh9vaFm_Xc7-14" value="&lt;font style=&quot;font-size: 14px;&quot;&gt;&lt;b&gt;QUIC Packet&lt;/b&gt;&lt;/font&gt;" style="text;html=1;align=center;verticalAlign=middle;whiteSpace=wrap;rounded=0;" vertex="1" parent="1">
          <mxGeometry x="217" y="318" width="90" height="30" as="geometry" />
        </mxCell>
        <mxCell id="X8yF9a7k6hh9vaFm_Xc7-15" value="" style="endArrow=classic;html=1;rounded=0;" edge="1" parent="1">
          <mxGeometry width="50" height="50" relative="1" as="geometry">
            <mxPoint x="360" y="400" as="sourcePoint" />
            <mxPoint x="160" y="400" as="targetPoint" />
          </mxGeometry>
        </mxCell>
        <mxCell id="X8yF9a7k6hh9vaFm_Xc7-16" value="&lt;font style=&quot;font-size: 14px;&quot;&gt;&lt;b&gt;PATH_CHALLENGE&lt;/b&gt;&lt;/font&gt;" style="text;html=1;align=center;verticalAlign=middle;whiteSpace=wrap;rounded=0;" vertex="1" parent="1">
          <mxGeometry x="230" y="370" width="60" height="30" as="geometry" />
        </mxCell>
        <mxCell id="X8yF9a7k6hh9vaFm_Xc7-18" value="" style="endArrow=classic;html=1;rounded=0;" edge="1" parent="1">
          <mxGeometry width="50" height="50" relative="1" as="geometry">
            <mxPoint x="160" y="450" as="sourcePoint" />
            <mxPoint x="360" y="450" as="targetPoint" />
          </mxGeometry>
        </mxCell>
        <mxCell id="X8yF9a7k6hh9vaFm_Xc7-19" value="&lt;font style=&quot;font-size: 14px;&quot;&gt;&lt;b&gt;PATH_RESPONSE&lt;/b&gt;&lt;/font&gt;" style="text;html=1;align=center;verticalAlign=middle;whiteSpace=wrap;rounded=0;" vertex="1" parent="1">
          <mxGeometry x="220" y="420" width="60" height="30" as="geometry" />
        </mxCell>
      </root>
    </mxGraphModel>
  </diagram>
</mxfile>
